<?xml version="1.0" encoding="UTF-8" standalone="no"?>
<!-- Created with Inkscape (http://www.inkscape.org/) -->

<svg
   xmlns:dc="http://purl.org/dc/elements/1.1/"
   xmlns:cc="http://creativecommons.org/ns#"
   xmlns:rdf="http://www.w3.org/1999/02/22-rdf-syntax-ns#"
   xmlns:svg="http://www.w3.org/2000/svg"
   xmlns="http://www.w3.org/2000/svg"
   xmlns:xlink="http://www.w3.org/1999/xlink"
   xmlns:sodipodi="http://sodipodi.sourceforge.net/DTD/sodipodi-0.dtd"
   xmlns:inkscape="http://www.inkscape.org/namespaces/inkscape"
   width="870"
   height="600"
   id="svg2"
   version="1.1"
   inkscape:version="0.47 r22583"
   sodipodi:docname="design.svg">
  <defs
     id="defs4">
    <inkscape:path-effect
       effect="skeletal"
       id="path-effect3118"
       is_visible="true"
       pattern="M 0,0 0,32.223355 109.07109,31.225893 91.873117,22.147211 150.43658,15.088834 82.743672,9.539341 130.20815,1.9695425 0,0 z"
       copytype="single_stretched"
       prop_scale="1"
       scale_y_rel="false"
       spacing="0"
       normal_offset="0"
       tang_offset="0"
       prop_units="false"
       vertical_pattern="false"
       fuse_tolerance="0"
       pattern-nodetypes="cccccccc" />
    <inkscape:path-effect
       effect="spiro"
       id="path-effect3116"
       is_visible="true" />
    <inkscape:path-effect
       effect="skeletal"
       id="path-effect2938"
       is_visible="true"
       pattern="m 0,452.36218 0,10 10,-5 z"
       copytype="single_stretched"
       prop_scale="1"
       scale_y_rel="false"
       spacing="0"
       normal_offset="0"
       tang_offset="0"
       prop_units="false"
       vertical_pattern="false"
       fuse_tolerance="0" />
    <inkscape:path-effect
       effect="spiro"
       id="path-effect2936"
       is_visible="true" />
    <inkscape:path-effect
       effect="skeletal"
       id="path-effect2932"
       is_visible="true"
       pattern="m 0,452.36218 0,10 10,-5 z"
       copytype="single_stretched"
       prop_scale="1"
       scale_y_rel="false"
       spacing="0"
       normal_offset="0"
       tang_offset="0"
       prop_units="false"
       vertical_pattern="false"
       fuse_tolerance="0" />
    <inkscape:path-effect
       effect="spiro"
       id="path-effect2930"
       is_visible="true" />
    <inkscape:path-effect
       effect="skeletal"
       id="path-effect2926"
       is_visible="true"
       pattern="m 0,452.36218 0,10 10,-5 z"
       copytype="single_stretched"
       prop_scale="1"
       scale_y_rel="false"
       spacing="0"
       normal_offset="0"
       tang_offset="0"
       prop_units="false"
       vertical_pattern="false"
       fuse_tolerance="0" />
    <inkscape:path-effect
       effect="spiro"
       id="path-effect2924"
       is_visible="true" />
    <inkscape:path-effect
       effect="skeletal"
       id="path-effect2904"
       is_visible="true"
       pattern="M 2.8571429,450.93361 0,492.36218 l 98.571429,-6.42857 -35.357143,-11.96429 36.071428,-6.25 -96.4285711,-16.78571 z"
       copytype="single_stretched"
       prop_scale="1"
       scale_y_rel="false"
       spacing="0"
       normal_offset="0"
       tang_offset="0"
       prop_units="false"
       vertical_pattern="false"
       fuse_tolerance="0"
       pattern-nodetypes="cccccc" />
    <inkscape:path-effect
       effect="spiro"
       id="path-effect2902"
       is_visible="true" />
    <inkscape:path-effect
       effect="skeletal"
       id="path-effect2825"
       is_visible="true"
       pattern="M 0,0 0,10 10,5 z"
       copytype="single_stretched"
       prop_scale="1"
       scale_y_rel="false"
       spacing="0"
       normal_offset="0"
       tang_offset="0"
       prop_units="false"
       vertical_pattern="false"
       fuse_tolerance="0" />
    <inkscape:path-effect
       effect="spiro"
       id="path-effect2823"
       is_visible="true" />
    <inkscape:path-effect
       effect="skeletal"
       id="path-effect2818"
       is_visible="true"
       pattern="M 0,0 0,10 10,5 z"
       copytype="single_stretched"
       prop_scale="1"
       scale_y_rel="false"
       spacing="0"
       normal_offset="0"
       tang_offset="0"
       prop_units="false"
       vertical_pattern="false"
       fuse_tolerance="0" />
    <inkscape:perspective
       sodipodi:type="inkscape:persp3d"
       inkscape:vp_x="0 : 526.18109 : 1"
       inkscape:vp_y="0 : 1000 : 0"
       inkscape:vp_z="744.09448 : 526.18109 : 1"
       inkscape:persp3d-origin="372.04724 : 350.78739 : 1"
       id="perspective10" />
    <inkscape:perspective
       id="perspective2914"
       inkscape:persp3d-origin="0.5 : 0.33333333 : 1"
       inkscape:vp_z="1 : 0.5 : 1"
       inkscape:vp_y="0 : 1000 : 0"
       inkscape:vp_x="0 : 0.5 : 1"
       sodipodi:type="inkscape:persp3d" />
  </defs>
  <sodipodi:namedview
     id="base"
     pagecolor="#ffffff"
     bordercolor="#666666"
     borderopacity="1.0"
     inkscape:pageopacity="0"
     inkscape:pageshadow="2"
     inkscape:zoom="0.98994949"
     inkscape:cx="333.21151"
     inkscape:cy="486.52649"
     inkscape:document-units="px"
     inkscape:current-layer="g2970"
     showgrid="false"
     inkscape:window-width="1440"
     inkscape:window-height="812"
     inkscape:window-x="0"
     inkscape:window-y="0"
     inkscape:window-maximized="1" />
  <metadata
     id="metadata7">
    <rdf:RDF>
      <cc:Work
         rdf:about="">
        <dc:format>image/svg+xml</dc:format>
        <dc:type
           rdf:resource="http://purl.org/dc/dcmitype/StillImage" />
        <dc:title />
      </cc:Work>
    </rdf:RDF>
  </metadata>
  <g
     inkscape:label="Layer 1"
     inkscape:groupmode="layer"
     id="layer1"
     transform="translate(0,-452.36218)">
    <image
       sodipodi:absref="/Applications/Inkscape.app/inkscape_pasted_image_20100626_170827.png"
       y="817.50507"
       x="44.142853"
       id="image2916"
       height="104"
       width="106"
       xlink:href="/Applications/Inkscape.app/inkscape_pasted_image_20100626_170827.png"
       style="fill:#7f665e;fill-opacity:1" />
    <g
       id="g2970"
       transform="matrix(0.73448421,0,0,0.8028749,230.24012,90.157567)">
      <path
         sodipodi:nodetypes="csssssc"
         inkscape:original-d="m 867.14286,478.07647 c -395.71429,0 -361.42857,0 -408.57142,0 -47.14286,0 -98.99244,-7.63073 -90.9739,22.29486 8.01854,29.92559 -32.29487,110.97389 5.76808,121.48237 38.06295,10.50848 70.7299,-36.00452 101.76154,-9.59111 41.67234,35.47052 -44.60273,-62.43538 -69.45724,-87.28988 -24.85451,-24.85451 -9.95563,48.81805 -9.95563,48.81805"
         inkscape:path-effect="#path-effect2902;#path-effect2904"
         id="path2900"
         d="m 838.90064,498.79075 c 9.41407,-13.80952 18.82815,-27.61904 28.24222,-41.42857 -136.19047,0.89856 -272.38095,1.79711 -408.57142,2.69566 -16.02053,0.0234 -33.21031,0.32263 -51.01293,3.70807 -17.88187,3.32839 -35.85119,10.69883 -51.09622,23.25197 -2e-5,1e-5 -3e-5,2e-5 -5e-5,4e-5 -11.12666,9.43892 -19.69408,21.33314 -25.22697,34.4503 -5.57914,13.10167 -8.17375,27.44212 -7.36392,41.84149 0,2e-5 0,4e-5 0,6e-5 0.87865,14.36009 5.07004,28.1985 11.94291,40.47762 6.83973,12.30242 16.34283,23.0899 27.88937,31.39594 18.4148,13.19568 41.2119,19.52292 63.872,17.46798 22.69385,-2.13532 44.06032,-12.82019 59.27539,-29.90988 11.70203,-13.16028 19.21193,-29.92485 20.8345,-47.83311 1.57977,-17.99294 -3.34468,-36.29521 -14.28246,-51.10137 -11.06507,-14.83559 -27.87436,-24.80047 -46.56801,-27.04159 -3e-5,0 -5e-5,0 -7e-5,-10e-6 -18.82754,-2.12379 -37.8961,4.33427 -51.5134,17.92662 -8.18898,8.34478 -13.76255,18.89115 -16.04843,30.32173 -1.65408,8.37356 -1.49342,16.96474 0.41876,25.19639 -1.65593,-8.28968 -1.53553,-16.83047 0.35359,-25.03889 2.60541,-11.20532 8.41572,-21.3376 16.59899,-29.16496 13.57761,-12.75233 32.11894,-18.21532 49.76827,-15.64189 1e-5,10e-6 2e-5,10e-6 3e-5,10e-6 17.54906,2.66244 32.93745,12.65069 42.66403,26.64597 9.64507,13.97728 13.48464,31.0137 11.49495,47.25293 -2.01286,16.19473 -9.46322,31.12546 -20.35872,42.5451 0,10e-6 -1e-5,10e-6 -1e-5,2e-5 -14.15746,14.82982 -33.72317,23.57863 -53.62218,24.69755 -19.88978,1.09446 -39.65713,-5.33758 -54.97905,-17.23268 -5.33398,-4.14409 -10.09735,-8.94348 -14.2041,-14.21926 4.36504,5.0606 9.33439,9.58249 14.7959,13.40281 15.69086,10.96947 35.22929,16.14433 54.04344,14.15797 18.81483,-1.9912 36.69811,-11.20617 48.893,-25.34066 9.39028,-10.88383 15.40659,-24.66536 16.43332,-38.8268 1.0286,-14.15508 -3.02701,-28.66324 -11.55089,-39.73267 -8.50923,-11.06377 -21.55537,-18.62174 -35.18254,-19.94551 -13.60199,-1.34101 -27.83108,3.64433 -37.03874,13.32094 -5.66545,5.91724 -9.545,13.52943 -11.00913,21.49632 -1.47058,7.96556 -0.54385,16.37019 2.57088,23.74802 -2.82791,-7.49231 -3.4003,-15.83986 -1.6631,-23.56289 1.72902,-7.72471 5.78995,-14.93877 11.41586,-20.37553 9.11287,-8.89688 22.81989,-13.00201 35.3319,-11.28314 12.56844,1.67533 24.33492,9.22046 31.65228,19.50624 0,10e-6 10e-6,2e-5 2e-5,4e-5 7.37351,10.30179 10.47957,23.66387 9.10424,36.25064 -1.35587,12.62908 -7.30023,24.78474 -15.96173,34.13295 -10e-6,1e-5 -2e-5,2e-5 -3e-5,3e-5 -11.2394,12.14082 -27.51855,19.66234 -43.86468,20.77311 -16.36707,1.1553 -33.24227,-4.09432 -46.22267,-13.90921 -8.10692,-6.11129 -14.80028,-14.17458 -19.53121,-23.17974 -4.701,-9.00289 -7.4757,-18.98463 -7.76907,-28.86326 -0.33926,-9.86981 1.79466,-19.89769 5.89682,-28.93594 4.12544,-9.00881 10.22781,-17.08959 17.74301,-23.04626 10.26345,-8.40311 23.7898,-13.20437 37.85416,-15.74691 2e-5,0 3e-5,0 4e-5,0 14.12577,-2.50054 29.31718,-2.2188 45.22265,-2.0015 126.7764,2.23257 253.5528,4.46514 380.3292,6.69771 0,0 0,0 0,0 z"
         style="fill:#000000;fill-rule:evenodd;stroke:none" />
      <path
         sodipodi:nodetypes="cszsssssssc"
         inkscape:original-d="m 857.14286,478.07647 c -402.85715,-4.28572 -230,-1.42858 -262.85715,0 -32.85714,1.42857 -92.39872,-2.35242 -140,-2.85715 -47.60127,-0.50473 -94.28571,30 -91.42856,65.71429 2.85714,35.71429 7.14285,87.14286 34.28571,75.71429 27.14286,-11.42857 109.99999,-71.42858 127.14285,-80.00001 17.14286,-8.57143 -11.42856,-21.42857 -24.2857,-34.28571 -12.85715,-12.85714 -68.57144,35.71428 -88.57144,50 -20,14.28571 22.85715,8.57142 21.42857,30 -1.42857,21.42857 125.02047,-48.26186 151.42858,-32.85714 51.42857,29.99999 -60.00001,51.42857 -60.00001,51.42857"
         inkscape:path-effect="#path-effect2924;#path-effect2926"
         id="path2922"
         d="m 857.54926,483.05993 -0.8128,-9.96692 c -87.12883,7.4231 -174.88978,7.74286 -262.12155,0.94668 -23.31843,-1.81775 -46.71311,-4.13596 -70.27959,-5.14657 -23.46486,-1.01245 -47.15941,-0.67443 -70.56182,2.81989 -2e-5,0 -3e-5,0 -4e-5,0 -20.06462,2.96284 -40.27956,8.5295 -57.73876,19.59559 -10e-6,0 -2e-5,10e-6 -3e-5,2e-5 -17.51234,11.07942 -31.77011,28.4162 -36.21818,48.96932 -3.18267,15.1376 -0.77742,31.10898 5.88358,44.89447 6.65756,13.77015 17.30212,25.33766 29.87535,33.78621 13.97126,9.41076 30.44777,15.11029 47.28048,15.97748 10e-6,0 2e-5,0 3e-5,0 16.83755,0.8633 33.91843,-3.19652 48.38689,-11.85875 2e-5,-10e-6 4e-5,-3e-5 6e-5,-4e-5 14.46979,-8.66948 26.15075,-21.94498 32.57753,-37.53796 10e-6,-2e-5 2e-5,-4e-5 2e-5,-6e-5 6.42218,-15.60048 7.42407,-33.38528 2.45868,-49.49928 -4.33448,-14.04694 -13.20594,-26.674 -25.14965,-35.24248 -9.14862,-6.55801 -20.03723,-10.67983 -31.25688,-11.62198 -3e-5,0 -5e-5,0 -8e-5,0 -11.22246,-0.93959 -22.70278,1.35366 -32.60854,6.70979 -9.90652,5.36053 -18.13148,13.78381 -23.07508,23.90029 -4.94097,10.12089 -6.50186,21.85753 -4.18706,32.87192 2.68956,12.7927 10.80051,24.44849 22.20641,30.85401 3e-5,10e-6 5e-5,2e-5 7e-5,3e-5 12.10946,6.73295 26.78601,7.27248 40.06225,4.12527 13.26492,-3.13205 25.39718,-9.53186 37.08213,-16.19432 11.69047,-6.64942 23.19424,-13.65582 35.70378,-18.21112 12.50149,-4.54107 26.30473,-6.59091 39.02796,-3.01602 8.07803,2.25661 15.54079,6.74853 21.32494,12.8457 2e-5,2e-5 3e-5,4e-5 5e-5,5e-5 5.78479,6.09655 9.88993,13.7974 11.72648,22.01595 1.83731,8.2184 1.40507,16.95082 -1.24415,24.96242 -2.64861,8.01178 -7.51237,15.29686 -13.91214,20.82257 -2e-5,2e-5 -4e-5,3e-5 -5e-5,5e-5 -6.39947,5.52611 -14.32856,9.2872 -22.67428,10.74582 -8.34565,1.459 -17.09718,0.61357 -25.02357,-2.42601 -7.92648,-3.03933 -15.01538,-8.26811 -20.26694,-14.95963 -5.25166,-6.69143 -8.65626,-14.83332 -9.72905,-23.28871 1.01172,8.46291 4.35954,16.64602 9.58344,23.40214 5.224,6.75605 12.31163,12.06892 20.27912,15.19042 7.96759,3.12125 16.79384,4.04276 25.25037,2.62761 8.45647,-1.41554 16.5184,-5.16363 23.06141,-10.73106 6.54267,-5.56782 11.54541,-12.93716 14.30689,-21.09029 2.76086,-8.15333 3.27084,-17.06213 1.45066,-25.49296 -1.82095,-8.43067 -5.96526,-16.35179 -11.86765,-22.66424 -5.90305,-6.31183 -13.54051,-10.98966 -21.86293,-13.38055 -13.11191,-3.74617 -27.27165,-1.79439 -40.03016,2.77411 -12.75592,4.55625 -24.41746,11.52777 -36.11599,18.08134 -11.70379,6.5404 -23.69693,12.77949 -36.59953,15.69801 -12.88044,2.90083 -26.96581,2.3291 -38.23536,-4.13537 -2e-5,-2e-5 -4e-5,-3e-5 -6e-5,-4e-5 -10.64441,-6.0419 -18.20691,-17.14336 -20.6506,-29.14592 -2.10983,-10.35798 -0.54118,-21.43004 4.15981,-30.88945 4.69893,-9.46498 12.52546,-17.34586 21.85052,-22.30802 9.3267,-4.96704 20.16943,-7.03859 30.69252,-6.08441 2e-5,1e-5 5e-5,1e-5 7e-5,1e-5 10.5268,0.95172 20.76175,4.92361 29.31232,11.14189 11.16632,8.11366 19.44266,20.11324 23.42175,33.32894 4.57139,15.1599 3.47873,31.95668 -2.64765,46.54794 -1e-5,10e-6 -1e-5,2e-5 -2e-5,3e-5 -6.12276,14.60107 -17.25887,27.04008 -30.894,35.08242 -13.63828,8.05066 -29.79553,11.74608 -45.6097,10.82745 -2e-5,0 -4e-5,0 -7e-5,0 -15.82056,-0.91485 -31.33884,-6.42945 -44.43057,-15.37643 -11.76013,-8.05759 -21.66745,-18.94751 -27.68398,-31.70909 -6.0112,-12.7423 -8.14287,-27.43784 -5.12851,-41.03881 3.97821,-18.52355 17.41548,-34.3751 33.69239,-44.65629 2e-5,-1e-5 3e-5,-2e-5 5e-5,-4e-5 16.34718,-10.30534 35.69731,-15.3885 55.20771,-18.20732 2e-5,-1e-5 4e-5,-1e-5 7e-5,-1e-5 22.79252,-3.25447 46.01525,-3.39826 69.18558,-2.24807 23.27513,1.16161 46.55454,3.64203 69.9729,5.6357 87.61923,7.46304 175.87058,7.78279 263.59275,0.94668 z"
         style="fill:#3a2a1a;fill-opacity:1;fill-rule:evenodd;stroke:none" />
      <path
         sodipodi:nodetypes="csssssssc"
         inkscape:original-d="m 392.85715,485.21933 c 8.57142,-11.42858 1.15178,167.44196 -17.14286,140 -22.85714,-34.28572 85.71428,11.42857 84.28571,-8.57143 -1.42857,-20.00001 50,-90.00001 71.42857,-111.42858 21.42858,-21.42857 -65.71428,74.28572 -44.28571,75.71429 21.42857,1.42857 -54.28571,-47.14286 1.42857,-50 45.1161,-2.31365 205.71429,52.85714 195.71429,35.71428 -10,-17.14285 -58.03748,-75.63406 -70.00001,-61.42857 -22.85714,27.14286 102.85715,67.14286 102.85715,67.14286"
         inkscape:path-effect="#path-effect2930;#path-effect2932"
         id="path2928"
         d="m 394.20405,490.0345 -2.6938,-9.63034 c -15.37467,4.36132 -29.32272,13.31034 -39.68115,25.43762 -10.3511,12.13357 -16.9785,27.2889 -18.86456,43.09332 -1.87678,15.80557 1.01186,32.06095 8.19631,46.22753 7.1925,14.16252 18.59268,26.06187 32.40143,33.84647 1e-5,10e-6 2e-5,10e-6 3e-5,2e-5 13.92893,7.85078 30.21022,11.4106 46.13912,9.84467 15.93518,-1.57735 31.27953,-8.34712 43.03352,-19.2398 10e-6,-2e-5 3e-5,-4e-5 5e-5,-5e-5 8.6148,-8.04819 15.04804,-17.91272 20.14407,-28.12211 5.18286,-10.33883 9.19884,-21.02308 13.39072,-31.43688 4.17426,-10.31892 8.57306,-20.4331 14.48516,-29.46785 5.91684,-9.01153 13.33328,-17.0898 22.43491,-22.28057 1e-5,0 1e-5,-1e-5 2e-5,-1e-5 10.25632,-5.91595 22.70121,-8.15226 34.45372,-6.30272 10e-6,0 2e-5,0 3e-5,0 11.75926,1.8393 22.9277,7.78022 31.16267,16.44965 1e-5,10e-6 2e-5,2e-5 3e-5,3e-5 8.24482,8.66631 13.61754,20.12528 15.14965,32.04179 1.54025,11.91955 -0.75003,24.37221 -6.33203,35.07337 -5.57808,10.70724 -14.47758,19.72088 -25.08934,25.58025 -2e-5,10e-6 -4e-5,2e-5 -6e-5,3e-5 -10.61207,5.86537 -22.98445,8.60358 -35.13602,7.90003 -2e-5,0 -4e-5,0 -7e-5,-10e-6 -12.15462,-0.69961 -24.13482,-4.8431 -34.24068,-11.71242 -10.10972,-6.86799 -18.37752,-16.48307 -23.79828,-27.48472 -3.7336,-7.61707 -6.15633,-15.91704 -6.19992,-24.25568 -0.0418,-8.31759 2.27772,-16.75775 7.2269,-23.28529 2e-5,-10e-6 3e-5,-3e-5 4e-5,-5e-5 5.17536,-6.92608 13.23245,-11.63263 21.80694,-13.63635 2e-5,0 4e-5,-10e-6 7e-5,-10e-6 8.59627,-2.00895 17.78805,-1.34248 26.4352,1.07607 17.32851,4.80895 32.07869,16.60149 46.39838,28.33922 14.28252,11.80569 29.13361,24.11696 47.13108,30.08721 2e-5,0 4e-5,10e-6 7e-5,2e-5 9.01087,2.97563 18.73828,4.18431 28.19092,2.649 2e-5,0 4e-5,-10e-6 7e-5,-10e-6 9.46421,-1.53684 18.56833,-6.01003 25.03689,-13.18261 2e-5,-2e-5 4e-5,-3e-5 5e-5,-5e-5 7.73284,-8.6365 11.09018,-20.75375 9.46116,-32.14644 -1.63717,-11.38215 -8.01888,-21.83377 -16.99694,-28.89661 -8.97569,-7.05528 -20.34317,-10.76783 -31.69031,-10.94855 -3e-5,0 -5e-5,0 -8e-5,0 -11.34276,-0.179 -22.5994,3.05485 -32.37422,8.69298 -2e-5,10e-6 -4e-5,2e-5 -6e-5,3e-5 -10.33303,5.95574 -19.08577,14.58934 -25.1759,24.81823 -10e-6,2e-5 -2e-5,4e-5 -4e-5,6e-5 -6.08924,10.2294 -9.49574,22.02022 -9.80483,33.89888 -0.30824,11.87872 2.48186,23.80865 8.01135,34.30166 5.53011,10.49268 13.78379,19.51849 23.72016,25.95495 9.93668,6.43597 21.52991,10.26569 33.32285,11.01911 11.79296,0.75298 23.75734,-1.57212 34.39248,-6.67285 10.63501,-5.10099 19.91775,-12.9665 26.68716,-22.59886 6.7693,-9.63244 11.0122,-21.01301 12.20389,-32.70368 -1.27518,11.68186 -5.59683,23.01005 -12.40944,32.55813 -6.81249,9.54816 -16.10582,17.30217 -26.69784,22.28945 -10.59189,4.98755 -22.46929,7.20226 -34.12541,6.37393 -11.65615,-0.8279 -23.0793,-4.69791 -32.823,-11.10885 -9.744,-6.41046 -17.8011,-15.35681 -23.15471,-25.69451 -5.35424,-10.33736 -8.00223,-22.06049 -7.61697,-33.67389 0.38439,-11.6134 3.80178,-23.11361 9.80603,-33.03627 2e-5,-2e-5 3e-5,-4e-5 4e-5,-5e-5 6.00341,-9.92319 14.59321,-18.26829 24.66412,-23.97616 9.52765,-5.39583 20.44322,-8.45184 31.32969,-8.18956 10.87929,0.26051 21.74412,3.89007 30.187,10.64792 8.43679,6.74734 14.41561,16.68881 15.84143,27.32068 1.43297,10.61417 -1.78684,21.93777 -8.95855,29.77951 -2e-5,2e-5 -3e-5,4e-5 -5e-5,5e-5 -5.9633,6.57185 -14.50237,10.65022 -23.33719,12.04698 -1e-5,0 -3e-5,1e-5 -4e-5,1e-5 -8.85038,1.39892 -18.04955,0.16108 -26.62737,-2.71548 -10e-6,0 -2e-5,0 -3e-5,-10e-6 -17.18119,-5.73457 -31.5371,-17.92792 -45.79168,-29.79024 -14.21691,-11.92988 -29.33694,-24.07451 -47.65828,-29.4431 -9.17714,-2.67004 -19.06504,-3.42789 -28.54361,-1.326 -2e-5,0 -5e-5,10e-6 -7e-5,2e-5 -9.49611,2.10618 -18.44435,7.29425 -24.47059,15.1317 -5.66072,7.45616 -8.3664,16.82222 -8.34166,26.05767 0.023,9.2178 2.54491,18.24056 6.51154,26.40131 5.70984,11.80499 14.46484,22.13715 25.28926,29.61473 10.82789,7.47597 23.6712,12.02255 36.84577,12.8854 2e-5,0 5e-5,0 7e-5,1e-5 13.17704,0.85886 26.58387,-2.00632 38.23311,-8.32347 2e-5,-2e-5 4e-5,-3e-5 6e-5,-4e-5 11.64901,-6.32289 21.41479,-16.0711 27.65725,-27.8188 6.23823,-11.75321 8.85032,-25.39644 7.24865,-38.65714 -1.60971,-13.26296 -7.45498,-25.97011 -16.6176,-35.76613 -2e-5,-2e-5 -4e-5,-4e-5 -5e-5,-6e-5 -9.17193,-9.79229 -21.55999,-16.49854 -34.85153,-18.69574 -2e-5,0 -4e-5,-1e-5 -7e-5,-1e-5 -13.29729,-2.18678 -27.28154,0.22065 -39.06379,6.8779 -2e-5,10e-6 -4e-5,3e-5 -7e-5,4e-5 -10.36098,5.91284 -18.66428,14.70512 -25.05357,24.41905 -6.39484,9.69198 -11.09574,20.20662 -15.37243,30.64182 -4.32146,10.49349 -8.32755,20.96152 -13.34753,30.75957 -4.95544,9.62877 -10.89416,18.70162 -18.62875,25.72931 -2e-5,2e-5 -3e-5,3e-5 -5e-5,5e-5 -10.44483,9.57693 -24.2398,15.51771 -38.36316,16.81736 -14.13122,1.31123 -28.70513,-2.00953 -41.03552,-9.06973 -2e-5,-10e-6 -4e-5,-2e-5 -6e-5,-3e-5 -12.23229,-7.00245 -22.36289,-17.7422 -28.6328,-30.32955 -6.27798,-12.58332 -8.74305,-27.1085 -6.98009,-41.02746 1.75368,-13.92008 7.74856,-27.34418 16.91637,-37.92198 9.16048,-10.5841 21.5695,-18.41036 35.03436,-22.11602 z"
         style="fill:#7f665e;fill-opacity:1;fill-rule:evenodd;stroke:none" />
      <path
         sodipodi:nodetypes="csssssssc"
         inkscape:original-d="m 331.21661,559.50504 24.51895,57.14285 c -3.4493,-8.03879 61.29734,27.14286 84.45411,17.14286 23.15678,-10 28.60544,-31.42857 74.91898,-50 46.31355,-18.57143 46.31355,-42.85714 88.54062,-17.14286 42.22706,25.71429 25.88109,60 59.93518,24.28572 34.05409,-35.71429 14.9838,-68.57143 53.12437,-50 38.14057,18.57143 19.07029,22.85714 46.31354,17.14286 27.24327,-5.71429 32.69193,-8.57143 32.69193,-8.57143"
         inkscape:path-effect="#path-effect2936;#path-effect2938"
         id="path2934"
         d="m 335.81149,557.53346 -9.18976,3.94316 c 8.56048,19.27537 17.09686,38.5177 25.60914,57.72699 12.22151,10.55893 27.04681,17.87739 42.66548,21.12164 15.44231,2.99644 31.57976,1.91961 46.4262,-3.06297 1e-5,0 1e-5,0 2e-5,0 14.89083,-5.04372 28.03351,-13.64736 40.08655,-23.00736 12.06582,-9.33351 23.26963,-19.43565 35.34586,-28.1377 0,-10e-6 10e-6,-10e-6 2e-5,-2e-5 12.61729,-9.07046 26.33371,-16.76877 41.20494,-20.51231 14.843,-3.72734 31.02394,-3.46018 44.83887,2.86741 9.80275,4.42534 18.32473,11.8579 28.11132,17.62171 10e-6,0 2e-5,10e-6 2e-5,10e-6 4.88999,2.89169 10.15826,5.34842 15.803,6.65891 10e-6,0 2e-5,0 3e-5,0 5.65213,1.31687 11.70706,1.36387 17.30534,-0.4663 6.27001,-2.09904 11.49323,-6.36762 15.6196,-11.27686 1e-5,-10e-6 1e-5,-2e-5 2e-5,-2e-5 4.12969,-4.89524 7.32215,-10.38362 10.55982,-15.72104 3.24656,-5.33052 6.58944,-10.59354 10.91797,-14.92529 4.32608,-4.31821 9.72873,-7.76211 15.7032,-8.68164 10e-6,0 2e-5,0 3e-5,0 3.98992,-0.63256 8.14483,-0.12907 12.08919,1.01851 3.94609,1.15015 7.70431,2.95319 11.36543,4.93397 10e-6,10e-6 2e-5,10e-6 3e-5,10e-6 7.31813,3.97141 14.47651,8.75474 22.67253,10.74496 5.76399,1.39353 11.86447,1.30486 17.56144,-0.24252 5.69693,-1.54754 10.97817,-4.55041 15.20651,-8.63167 -4.29994,4.00576 -9.61394,6.89653 -15.28568,8.32972 -5.67169,1.43335 -11.69517,1.40773 -17.33023,-0.061 -8.02102,-2.08189 -14.99446,-6.95214 -22.3074,-11.07435 -10e-6,0 -10e-6,-10e-6 -2e-5,-10e-6 -3.65447,-2.06605 -7.45235,-3.96741 -11.5095,-5.23443 -4.05846,-1.26947 -8.4024,-1.86636 -12.68293,-1.27948 -10e-6,0 -10e-6,0 -2e-5,0 -6.40279,0.90544 -12.19251,4.40042 -16.7775,8.864 -4.58451,4.45199 -8.12833,9.78604 -11.47368,15.0924 -3.35428,5.2995 -6.57751,10.6415 -10.61124,15.2308 -10e-6,10e-6 -10e-6,10e-6 -2e-5,2e-5 -4.03596,4.57403 -8.94158,8.48469 -14.58569,10.20793 -5.01155,1.57366 -10.52256,1.39652 -15.70705,0.12064 -10e-6,-10e-6 -10e-6,-10e-6 -10e-6,-10e-6 -5.19305,-1.28255 -10.10262,-3.70287 -14.76465,-6.55057 -9.31787,-5.71526 -17.78085,-13.33574 -28.17894,-18.32717 -14.74929,-6.98783 -31.91594,-7.68006 -47.69154,-3.94307 -15.75533,3.72273 -30.23112,11.44467 -43.34589,20.58389 -10e-6,0 -2e-5,10e-6 -2e-5,10e-6 -12.56099,8.73285 -24.01736,18.68982 -35.986,27.61318 -11.98095,8.89652 -24.61786,16.92196 -38.41951,21.24173 0,10e-6 -10e-6,10e-6 -2e-5,10e-6 -13.70798,4.33585 -28.55499,5.04539 -42.54883,2.06675 -1e-5,0 -1e-5,0 -2e-5,-10e-6 -13.81751,-2.73083 -26.82793,-9.13831 -37.26765,-18.2938 -7.83368,-18.88595 -15.64327,-37.73885 -23.42876,-56.55871 z"
         style="fill:#2b3440;fill-opacity:1;fill-rule:evenodd;stroke:none" />
      <path
         id="path2920"
         d="m 398.47679,649.855 c -30.61481,-6.57529 -58.68297,-32.36769 -69.24864,-63.63396 -3.41879,-10.117 -4.06151,-14.35727 -4.09274,-27.00172 -0.11875,-48.07813 30.56787,-83.22406 82.60176,-94.60525 11.91336,-2.60577 21.26502,-2.90493 124.31105,-3.97671 61.28572,-0.63744 161.44372,-1.51808 222.57334,-1.95698 l 111.14478,-0.79801 -12.39112,18.16848 c -6.81513,9.99266 -13.20398,19.03709 -14.19748,20.09873 -1.51683,1.62088 -30.05205,1.42937 -178.03936,-1.19492 -194.99674,-3.45791 -244.209,-3.37207 -257.4159,0.449 -22.86677,6.61592 -39.96016,20.67971 -47.27489,38.89599 -18.18375,45.28403 14.84936,93.4911 64.06325,93.4911 19.71212,0 36.12138,-6.68778 48.15905,-19.62778 11.98522,-12.88361 16.94976,-25.12838 16.94976,-41.80559 0,-16.05827 -6.14187,-29.75757 -17.5222,-39.0829 -8.23917,-6.75138 -15.30081,-9.57663 -27.4778,-10.99342 l -10,-1.16349 11.42857,0.38841 c 9.04901,0.30755 12.97918,1.18018 18.87584,4.19108 15.16502,7.74344 24.10452,19.4504 28.52218,37.35195 7.48252,30.32133 -15.52856,66.06744 -49.23117,76.47711 -10.24165,3.16332 -29.46212,3.77946 -40.30971,1.29219 -9.97413,-2.287 -25.67536,-10.4918 -33.80193,-17.66346 -9.17475,-8.09667 -11.54316,-8.48478 -3.98799,-0.65351 16.81443,17.4289 40.85688,26.75636 64.80201,25.14043 42.03471,-2.83669 74.41649,-35.59403 74.41649,-75.27959 0,-23.35211 -11.1895,-44.85957 -29.72678,-57.13815 -8.73691,-5.78709 -18.41738,-8.72566 -33.13037,-10.05695 l -12.14285,-1.09873 15,0.3475 c 13.29378,0.30796 16.07146,0.84273 24.41967,4.70131 26.26451,12.1396 42.89715,40.52176 40.85307,69.71225 -1.44492,20.63413 -9.77246,38.36216 -25.1472,53.53434 -21.35714,21.07579 -52.79375,29.97506 -82.98269,23.49125 z"
         style="fill:#101410;fill-opacity:1" />
      <path
         style="fill:#7f665e;fill-opacity:1;fill-rule:evenodd;stroke:none"
         d="m -313.50859,778.57626 0.0892,32.22324 c 262.686714,-1.01458 525.36627,-2.02896 788.03867,-3.04314 10e-6,0 2e-5,0 4e-5,0 26.10821,-1.4605 53.18587,7.39223 73.3789,23.99333 1e-5,0 2e-5,10e-6 3e-5,2e-5 5.88741,4.8103 11.68189,10.77917 18.17106,17.00596 4.7995,4.68504 10.06309,9.48538 16.05032,13.96436 -5.74074,-4.80692 -10.69137,-9.88628 -15.19444,-14.85107 -6.0874,-6.60696 -11.49709,-12.97137 -17.18766,-18.34307 -19.53761,-18.53867 -47.14422,-30.01012 -75.4589,-30.35587 -10e-6,0 -10e-6,0 -10e-6,0 -3.38689,-0.20132 -6.77371,-0.40264 -10.16047,-0.60396 3.37959,-0.0575 6.75916,-0.11497 10.13871,-0.17246 28.44506,-1.95787 57.88626,7.20191 80.36726,25.22423 6.525,5.22205 12.6117,11.29874 19.01227,17.29823 6.35962,5.99059 13.10702,11.91978 20.82018,16.72164 10e-6,10e-6 2e-5,10e-6 3e-5,2e-5 7.73295,4.83481 16.5715,8.35059 25.92743,9.12985 10e-6,0 2e-5,10e-6 3e-5,10e-6 9.40044,0.78902 19.2174,-1.62312 26.77056,-7.57525 1e-5,-10e-6 2e-5,-2e-5 3e-5,-2e-5 5.17393,-4.19249 8.86142,-9.6374 11.66826,-15.21579 2.82658,-5.55649 4.94132,-11.23162 7.41546,-16.5616 2.49476,-5.3135 5.33738,-10.39985 9.30766,-14.32743 10e-6,-10e-6 10e-6,-2e-5 2e-5,-2e-5 3.95284,-3.8883 9.08339,-6.79457 14.42529,-6.9862 3.02751,-0.15147 6.13928,0.54291 9.00377,1.81724 2.86904,1.27746 5.49974,3.17603 7.83624,5.41142 4.68847,4.46451 8.06859,10.32534 11.26507,16.29873 0,1e-5 0,2e-5 10e-6,3e-5 3.17625,5.98771 6.24756,12.23707 10.55898,17.7339 4.3067,5.5189 10.12606,10.20544 17.02948,11.86274 4.83143,1.12905 9.88563,0.6881 14.53141,-0.75747 4.64296,-1.4429 8.90394,-3.82478 12.83095,-6.57575 0,-10e-6 10e-6,-10e-6 2e-5,-2e-5 7.85515,-5.4981 14.50136,-12.45979 22.52223,-17.54564 11.31687,-7.17814 25.2367,-10.31524 38.66953,-8.627 13.43259,1.68993 26.27847,8.19342 35.65554,18.14797 -9.14006,-10.17157 -21.90587,-17.06076 -35.52176,-19.1027 -13.61664,-2.03665 -27.9331,0.79648 -39.81269,7.93891 -1e-5,10e-6 -2e-5,10e-6 -3e-5,2e-5 -8.39715,5.07222 -15.27815,11.91963 -22.97943,17.02791 -3.85246,2.54631 -7.91633,4.70475 -12.19866,5.90374 -4.27204,1.19038 -8.79438,1.49459 -12.89724,0.3942 -5.90162,-1.47107 -10.93297,-5.86641 -14.82418,-10.96515 -3.88517,-5.14948 -6.66867,-11.25037 -9.7641,-17.38797 -3.05866,-6.16324 -6.55968,-12.47328 -11.71627,-17.73085 -2.5909,-2.62366 -5.62534,-4.90712 -9.068,-6.56297 -3.44938,-1.66057 -7.31325,-2.59986 -11.28014,-2.52904 -7.003,0.23837 -13.43925,3.5094 -18.22119,8.15503 -4.76148,4.5943 -8.14442,10.17321 -10.85949,15.75209 -2.7428,5.55713 -4.96364,11.12418 -7.69727,16.16204 -2.75856,5.00926 -5.97157,9.64982 -10.16281,12.76279 -10e-6,0 -10e-6,10e-6 -2e-5,10e-6 -5.91795,4.59411 -14.06404,6.25604 -21.79047,5.51565 -1e-5,0 -1e-5,0 -2e-5,0 -7.7855,-0.75245 -15.34742,-4.0684 -22.20094,-8.49255 -1e-5,-10e-6 -2e-5,-10e-6 -3e-5,-2e-5 -6.84389,-4.44098 -12.99408,-10.16605 -19.10314,-16.15395 -6.1199,-6.0313 -12.22105,-12.39976 -19.12011,-18.23025 -23.8504,-20.12238 -55.34889,-30.90825 -86.72508,-29.53927 -29.13676,-0.2015 -58.27272,-0.40301 -87.40789,-0.60455 29.11422,-0.62919 58.2269,-1.25834 87.33804,-1.88745 31.97715,-2.25108 64.64773,7.84201 90.01963,28.13249 10e-6,1e-5 10e-6,1e-5 2e-5,2e-5 7.32775,5.87916 13.723,12.178 19.92552,17.95373 6.21033,5.71086 12.22039,11.007 18.5938,14.81389 6.37538,3.74971 13.02748,6.47094 19.34821,6.75347 6.16234,0.24971 12.456,-1.18191 16.1944,-4.59697 2.85366,-2.13702 5.15857,-5.97823 7.53632,-10.4124 2.29449,-4.5287 4.29971,-10.04801 7.09393,-16.10867 2.69488,-6.13903 6.54883,-12.67653 12.35493,-18.69107 5.89053,-6.2184 14.39744,-10.58891 24.57768,-11.36461 10e-6,0 2e-5,-10e-6 3e-5,-10e-6 5.76369,-0.1695 11.20042,0.98655 15.9748,3.20666 4.74432,2.19909 8.82524,5.08785 12.18293,8.38261 6.59908,6.63682 10.96999,13.79436 14.2204,20.17259 1.23616,2.24677 2.3651,4.39143 3.44878,6.38592 -1.03882,-2.01796 -2.12189,-4.18439 -3.31391,-6.45521 -3.12565,-6.44655 -7.38168,-13.69253 -13.95207,-20.51078 -3.34578,-3.38446 -7.44463,-6.37511 -12.25445,-8.68557 -2e-5,-10e-6 -5e-5,-2e-5 -7e-5,-3e-5 -4.84168,-2.33272 -10.39324,-3.59 -16.33659,-3.49058 -10.49795,0.68784 -19.34681,5.04129 -25.49906,11.3777 -6.05871,6.11073 -10.13755,12.73887 -12.96999,18.91731 -2.94552,6.08916 -5.06149,11.55344 -7.39466,15.87859 -10e-6,2e-5 -2e-5,3e-5 -2e-5,4e-5 -2.43085,4.21435 -4.64513,7.742 -7.19371,9.43726 -3.22075,2.8488 -8.90453,3.87662 -14.39277,3.55028 -5.68779,-0.36787 -11.76467,-3.09679 -17.71168,-6.74396 -5.94954,-3.72572 -11.62881,-8.99114 -17.66578,-14.76026 -6.01496,-5.85017 -12.35539,-12.34043 -19.81664,-18.57693 -1e-5,-10e-6 -3e-5,-3e-5 -4e-5,-4e-5 -25.87104,-21.52383 -59.53215,-32.74972 -93.15156,-31.04529 -262.44139,0.25466 -524.870947,0.50899 -787.28866,0.76299 z"
         id="path3114"
         inkscape:path-effect="#path-effect3116;#path-effect3118"
         inkscape:original-d="m -313.46397,794.68788 787.65587,-2.1812 c 59.33104,14.06103 69.35343,-8.19038 83.47069,27.55848 14.76173,37.38083 8.02367,46.97501 87.67077,36.65701 79.64709,-10.31799 -52.91125,-65.61395 44.67426,-52.72183 578.02338,76.36318 36.74508,81.19382 55.98503,54.31517 36.61226,-51.14817 27.04997,-134.13397 49.5916,-24.07533 22.54163,110.05866 40.57494,72.226 73.63599,10.31799"
         sodipodi:nodetypes="ccsssssc" />
    </g>
  </g>
</svg>
